<?xml version="1.0" standalone="no"?>
<!DOCTYPE svg PUBLIC "-//W3C//DTD SVG 20010904//EN"
 "http://www.w3.org/TR/2001/REC-SVG-20010904/DTD/svg10.dtd">
<svg version="1.0" xmlns="http://www.w3.org/2000/svg"
 width="128.000000pt" height="128.000000pt" viewBox="0 0 128.000000 128.000000"
 preserveAspectRatio="xMidYMid meet">

<g transform="translate(0.000000,128.000000) scale(0.100000,-0.100000)"
fill="#000000" stroke="none">
<path d="M543 1266 c-61 -20 -106 -51 -157 -107 -118 -131 -107 -337 25 -461
64 -60 137 -88 229 -88 136 0 242 66 302 187 61 124 40 265 -53 368 -67 73
-138 107 -232 111 -43 2 -89 -2 -114 -10z"/>
<path d="M453 516 c-125 -31 -255 -130 -315 -242 -49 -91 -74 -234 -46 -262
17 -17 1079 -17 1096 0 16 16 15 82 -3 153 -46 174 -196 317 -373 354 -70 15
-293 13 -359 -3z"/>
</g>
</svg>
